<svg height="800" width="800" xmlns="http://www.w3.org/2000/svg" viewBox="0 0 511.999 511.999"><path fill="#6570b5" d="M409.176 97.679H100.967a7.615 7.615 0 00-7.616 7.616v301.411a7.615 7.615 0 007.616 7.616h308.209a7.615 7.615 0 007.616-7.616V105.295a7.615 7.615 0 00-7.616-7.616zm-7.616 301.41H108.583V112.911H401.56v286.178z"/><path fill="#f37253" d="M344.68 236.885a7.612 7.612 0 00-6.377-5.214l-53.82-6.152L262 176.234a7.613 7.613 0 00-10.09-3.768 7.614 7.614 0 00-3.768 10.09l24.268 53.202a7.613 7.613 0 006.065 4.406l41.51 4.744-30.794 28.239a7.613 7.613 0 00-2.315 7.129l8.315 40.943-36.371-20.559a7.613 7.613 0 00-7.495 0l-36.371 20.561 8.315-40.943a7.617 7.617 0 00-2.315-7.129L190.16 244.91l41.51-4.744a7.616 7.616 0 006.702-8.432c-.477-4.18-4.266-7.185-8.432-6.702l-58.098 6.64a7.612 7.612 0 00-6.378 5.214 7.613 7.613 0 002.095 7.966l39.926 36.612-10.78 53.087a7.614 7.614 0 0011.211 8.146l47.157-26.659 47.157 26.659a7.61 7.61 0 008.223-.469 7.615 7.615 0 002.987-7.677l-10.78-53.087 39.926-36.612a7.612 7.612 0 002.094-7.967zM476.045 328.55h-40.299a7.615 7.615 0 00-7.616 7.616v35.873a7.615 7.615 0 007.616 7.616h40.299a7.615 7.615 0 007.616-7.616v-35.873a7.615 7.615 0 00-7.616-7.616zm-7.616 35.873h-25.066v-20.641h25.066v20.641z"/><path fill="#e79f5b" d="M504.384 71.695h-28.34a7.615 7.615 0 00-7.616 7.616v28.254h-25.066V79.311a7.615 7.615 0 00-7.616-7.616h-263.04a7.615 7.615 0 00-7.616 7.616 7.615 7.615 0 007.616 7.616H428.13v28.254a7.615 7.615 0 007.616 7.616h40.299a7.615 7.615 0 007.616-7.616V86.928h13.108v338.145H483.66v-24.692a7.615 7.615 0 00-7.616-7.616h-40.299a7.615 7.615 0 00-7.616 7.616v24.692H82.014v-24.692a7.615 7.615 0 00-7.616-7.616H35.956a7.615 7.615 0 00-7.616 7.616v24.692H15.232V86.928H28.34v28.254a7.615 7.615 0 007.616 7.616h38.44a7.615 7.615 0 007.616-7.616V86.928h29.862a7.615 7.615 0 007.616-7.616 7.615 7.615 0 00-7.616-7.616H74.398a7.615 7.615 0 00-7.616 7.616v28.254H43.573V79.311a7.615 7.615 0 00-7.616-7.616H7.616A7.615 7.615 0 000 79.311v353.377a7.615 7.615 0 007.616 7.616h28.34a7.615 7.615 0 007.616-7.616v-24.692H66.78v24.692a7.615 7.615 0 007.616 7.616h361.349a7.615 7.615 0 007.616-7.616v-24.692h25.066v24.692a7.615 7.615 0 007.616 7.616h28.34a7.615 7.615 0 007.616-7.616V79.311a7.613 7.613 0 00-7.615-7.616z"/><path fill="#6570b5" d="M74.398 264.336H35.956a7.615 7.615 0 00-7.616 7.616v35.873a7.615 7.615 0 007.616 7.616h38.44a7.615 7.615 0 007.616-7.616v-35.873h.001a7.613 7.613 0 00-7.615-7.616zm-7.618 35.873H43.573v-20.641H66.78v20.641zM74.398 200.121H35.956a7.615 7.615 0 00-7.616 7.616v35.874a7.615 7.615 0 007.616 7.616h38.44a7.615 7.615 0 007.616-7.616v-35.874h.001a7.613 7.613 0 00-7.615-7.616zm-7.618 35.874H43.573v-20.642H66.78v20.642z"/><path fill="#acb565" d="M476.045 135.908h-40.299a7.615 7.615 0 00-7.616 7.616v35.873a7.616 7.616 0 007.616 7.616h40.299a7.615 7.615 0 007.616-7.616v-35.873a7.615 7.615 0 00-7.616-7.616zm-7.616 35.872h-25.066v-20.641h25.066v20.641z"/><path fill="#a0b565" d="M74.398 135.907H35.956a7.615 7.615 0 00-7.616 7.616v35.873a7.615 7.615 0 007.616 7.616h38.44a7.615 7.615 0 007.616-7.616v-35.873h.001a7.613 7.613 0 00-7.615-7.616zm-7.618 35.874H43.573V151.14H66.78v20.641z"/><path fill="#b57e65" d="M74.398 328.55H35.956a7.615 7.615 0 00-7.616 7.616v35.873a7.615 7.615 0 007.616 7.616h38.44a7.615 7.615 0 007.616-7.616v-35.873a7.613 7.613 0 00-7.614-7.616zm-7.618 35.873H43.573v-20.641H66.78v20.641z"/><path fill="#6570b5" d="M476.045 264.336h-40.299a7.615 7.615 0 00-7.616 7.616v35.873a7.615 7.615 0 007.616 7.616h40.299a7.615 7.615 0 007.616-7.616v-35.873a7.615 7.615 0 00-7.616-7.616zm-7.616 35.873h-25.066v-20.641h25.066v20.641zM476.045 200.121h-40.299a7.615 7.615 0 00-7.616 7.616v35.874a7.615 7.615 0 007.616 7.616h40.299a7.615 7.615 0 007.616-7.616v-35.874a7.615 7.615 0 00-7.616-7.616zm-7.616 35.874h-25.066v-20.642h25.066v20.642z"/></svg>